Patient4_TMGait_0pt4_02_left_27_EMG.mot
version=1
nRows=33
nColumns=33
inDegrees=no
endheader
time	1LAddLong	2LGlutMax	3LGlutMed	4LIliopsoas	5LSemiMemb	6LBicFemLong	7LRecFem	8LVastMed	9LVastLat	10LGasMed	11LTibAnt	12lTibPost	13LPeroneusLong	14LSol	15LExtDigLong	16LFlexDigLong	17RAddLong	18RGlutMax	19RGlutMed	20RIliopsoas	21RSemiMemb	22RBicFemLong	23RRecFem	24RVastMed	25RVastLat	26RGasMed	27RTibAnt	28RTibPost	29RPeroneusLong	30RSol	31RExtDigLong	32RFlexDigLong
37.16	0.005646	0.10925	-0.1799	0.014648	-0.005341	-0.080261	-0.18738	0.002136	0.003815	-0.11475	-0.072479	-0.006104	-0.035858	-0.21042	0.038147	-0.21408	0.093536	0.10864	-0.11566	-0.01709	0.083771	-0.080719	-0.058441	-0.38345	-0.51697	-0.004272	0.14023	-0.004425	0.048523	-0.10529	-0.004883	-0.012054
37.161	0.010223	0.11261	-0.09491	-0.009003	-0.026703	-0.085449	-0.19073	0.005951	-0.002747	-0.35828	-0.04425	-0.009308	0.034485	-0.16678	0.05188	0.036163	0.092163	0.001373	0.29694	-0.049133	-0.097351	-0.075989	-0.019836	-0.48386	-0.45532	-0.001068	0.17761	-0.002899	0.060577	-0.054626	-0.005188	-0.003357
37.162	0.013275	0.11765	-0.074463	-0.009766	0.03952	-0.046844	-0.19775	-0.000153	0.012817	0.036926	-0.037537	-0.011902	0.12222	-0.16403	0.092773	0.16525	0.06424	-0.065002	0.18951	-0.037842	-0.19272	-0.051117	0.032806	-0.39719	-0.28488	-0.008087	0.12573	-0.005188	-0.011597	-0.12344	-0.005188	-0.00824
37.163	0.014038	0.082855	-0.088348	-0.00061	0.049591	0.007324	-0.18341	0.001221	0.016174	-0.35675	0.012207	-0.004578	0.10132	-0.067902	0.084534	-0.021057	0.027466	-0.009613	-0.003662	-0.028992	-0.16083	-0.045776	0.03952	-0.32105	-0.16129	-0.007782	0.11902	-0.004272	-0.043182	0.048981	-0.001831	-0.006714
37.164	0.01709	0.073547	-0.041504	0.010071	0.015869	-0.029755	-0.21194	0.011749	0.011292	-0.81024	0.06424	-0.010986	0.046234	0.070038	0.085449	-0.81802	0.037689	-0.002289	0.04364	-0.028687	-0.32013	-0.061951	-0.02121	-0.24521	-0.044708	-0.008392	0.12558	-0.003357	-0.050201	0.079193	-0.003967	-0.005341
37.165	0.011902	0.12909	-0.007019	0.016022	0.015106	-0.03479	-0.22537	0.030212	0.021057	-0.27817	0.054932	-0.004883	0.02243	0.13718	0.049133	0.16983	0.070496	0.007629	-0.023193	0.018005	-0.27771	-0.049133	-0.042114	-0.2327	-0.021973	-0.009613	0.12955	-0.002136	-0.067596	0.10132	-0.004883	-0.000458
37.166	0.000916	0.10574	-0.021057	0.015411	0.005798	-0.051727	-0.21729	0.00473	0.014954	0.13336	0.0354	0.000763	0.054474	0.095062	0.04364	0.867	0.060577	-0.020905	0.015106	0.055847	-0.28549	-0.087585	-0.056458	-0.21194	-0.033569	-0.00412	0.061646	-0.003815	-0.003662	0.03952	-0.00824	-0.011444
37.167	0.008545	0.12894	-0.032196	0.02121	0.010071	-0.076752	-0.21454	0.00351	0.02655	0.023956	0.026398	0.011292	-0.003662	-0.044403	0.059814	-0.11734	0.039368	-0.04303	0.15976	-0.029755	-0.074158	-0.10986	-0.10239	-0.097198	0.036469	-0.009155	0.070801	-0.003662	-0.004425	0.039215	-0.003662	0
37.168	0.009003	0.15289	-0.010223	-0.010071	0.027161	-0.073395	-0.25177	0.005341	0.022278	-0.056763	0.024719	0.022888	-0.017242	-0.046844	-0.014801	-0.14191	-0.009155	-0.037384	0.11063	-0.057831	0.75073	-0.12955	-0.10712	-0.012207	0.09552	0.001678	0.14755	-0.007324	-0.012665	-0.019989	-0.002899	-0.009613
37.169	0.007629	0.14496	0.009308	-0.002899	0.015564	-0.011444	-0.2507	-0.002289	0.032501	0.047913	0.031433	0.026703	-0.011902	0.088348	-0.032196	0.41473	0.0177	-0.13306	-0.001831	-0.048065	0.37842	-0.22308	0.009003	-0.045776	0.071716	-0.007324	0.027771	-0.007782	-0.029144	-0.030975	-0.006104	-0.001221
37.17	0.006104	0.10193	-0.042877	0.010681	0.006104	0.001373	-0.22446	0.001984	0.035858	0.028229	0.025177	0.03006	-0.007172	0.037994	-0.018616	0.095825	0.078735	-0.1149	0.014191	-0.05188	0.11948	-0.28061	0.062866	-0.027313	0.055695	-0.007019	0.053558	-0.010681	-0.084839	-0.060425	-0.005646	-0.002899
37.171	0.007477	0.13367	-0.073395	0.02594	-0.001373	-0.00824	-0.22079	0.000763	0.04837	0.037994	0.017853	0.013275	-0.006256	-0.11459	-0.000153	-0.019073	0.12741	-0.10162	0.013123	-0.1033	0.13733	-0.16846	0.11139	-0.066681	0.059967	-0.001984	0.075989	-0.000916	-0.043945	-0.068054	-0.00351	-0.001221
37.172	0.014191	0.10284	-0.057373	0.00885	-0.012512	0.027161	-0.21286	0.001678	0.042114	0.07309	0.024261	-0.000458	-0.001526	-0.12177	-0.007172	-0.021362	0.072784	-0.088043	0.024872	-0.088959	0.15366	-0.085754	0.049286	-0.036469	0.092163	0.004425	0.15854	-0.007477	-0.042725	-0.093689	-0.008698	0.001221
37.173	0.007935	0.093536	-0.00946	0.010223	-0.025635	0.038757	-0.20218	0.00885	0.039825	0.070343	0.018921	-0.003357	-0.010529	0.039215	0.006104	0	0.018616	-0.090332	0.025482	-0.029755	0.19348	-0.009003	0.051727	-0.058441	0.068665	-0.003967	0.26184	-0.010529	-0.020599	-0.12344	-0.001984	-0.009003
37.174	0.005035	0.10178	-0.027618	-0.006256	-0.01358	0.031891	-0.20691	0.000763	0.03418	0.0737	0.036774	-0.009155	-0.018311	0.041504	0.021973	-0.011902	-0.018311	-0.09552	-0.046997	0.083466	0.28442	0.045013	0.001678	-0.010529	0.00351	-0.001831	0.40329	-0.002441	0.044708	-0.15182	0.000763	-0.00885
37.175	0.004578	0.084229	-0.021057	0.011749	-0.014954	0.004272	-0.19989	-0.00351	0.025787	0.14557	0.056152	0.001221	-0.019531	0.02533	0.029602	-0.032349	-0.022278	-0.13153	-0.010071	0.20996	0.17761	0.017242	-0.084381	-0.028076	0.0354	0.002289	0.29785	-0.007782	0.068512	-0.10056	-0.005493	-0.010071
37.176	-0.003357	0.08194	-0.037537	0.013428	-0.03006	0.004883	-0.23544	0.006104	0.029602	0.033264	0.033875	-0.000305	-0.028687	0.021057	0.042267	-0.031891	0.02243	-0.25192	0.087585	0.26245	0.022583	-0.05661	-0.18784	0.015869	0.18509	-0.003052	0.000153	-0.001984	0.004425	-0.06485	-0.003204	-0.005188
37.177	0.002594	0.083771	-0.032959	0.010529	-0.055084	0.019073	-0.22598	0.001526	0.032959	-0.021515	0.038605	-0.000916	-0.032806	0.006866	0.034332	-0.029297	-0.002594	-0.26367	0.12283	0.066071	-0.19974	0.020142	-0.2948	0.048981	0.2359	-0.002594	-0.025482	-0.005951	-0.018158	0.016479	-0.003204	-0.012512
37.178	0.009766	0.082092	-0.012512	0.006866	-0.051727	-0.021667	-0.21606	0.002136	0.033264	0.035858	0.03006	-0.009918	-0.036011	0.016937	0.01358	-0.020752	0.014496	-0.15747	0.15198	-0.04425	-0.26398	-0.04715	-0.021362	-0.034332	0.19989	-0.001221	-0.21912	-0.002289	0.008545	-0.015259	0.000305	-0.010986
37.179	0.005493	0.079803	-0.001373	-0.010834	-0.011444	-0.024872	-0.20676	-0.001373	0.027924	0.15335	-0.017242	0.005646	-0.022736	0.016174	0.011749	-0.016785	0.091705	-0.13062	0.082703	-0.091248	-0.2861	0	0.21378	-0.14374	0.06073	-0.001678	-0.25177	-0.003815	0.002594	-0.031586	-0.003357	-0.000763
37.18	0.000763	0.07782	0.00473	-0.000305	0.015106	0.014954	-0.20737	-0.005798	0.037384	0.1944	-0.002594	0.000458	-0.028076	-0.03067	0.009003	-0.019684	0.031128	-0.071869	0.14969	-0.07431	-0.21881	0.13672	0.24689	-0.13916	0.059509	-0.000305	-0.087585	-0.005798	-0.029297	-0.015411	-0.00351	-0.006104
37.181	0.002136	0.057831	-0.01358	-0.003357	-0.016785	0.046692	-0.2211	-0.000305	0.032196	0.07782	0.002747	-0.00946	-0.025787	-0.041046	-0.009766	0.006256	-0.11765	-0.019684	0.15091	-0.040741	-0.087891	0.24933	-0.030823	0.15427	0.12863	-0.000305	-0.004272	-0.001984	-0.037079	0.011597	-0.003815	-0.000763
37.182	0.007172	0.063477	0.004272	-0.005188	-0.035706	0.024872	-0.20798	-0.004578	0.029602	-0.03479	0.013123	-0.00885	-0.021362	-0.029449	0.000916	0.007019	-0.098267	-0.019684	0.066833	0.045013	0.32745	0.14984	-0.042572	0.29312	0.13504	-0.001526	0.034027	-0.005188	0.007782	-0.016022	-0.003052	-0.005035
37.183	0.003967	0.057831	0.017853	-0.001984	-0.014496	-0.015717	-0.19943	0.002136	0.013275	0.26657	0.006866	-0.006104	0.012665	-0.053558	-0.037689	-0.88959	-0.068665	0.083923	0.054474	0.075073	0.39841	0.03418	0.032959	0.22079	0.030823	-0.005341	-0.003204	-0.008698	0.043945	-0.059204	-0.001831	-0.00885
37.184	0.008698	0.07843	0.008087	0.014038	0.000458	-0.079498	-0.21332	-0.002899	0.001373	0.54932	0.006104	-0.006561	0.01358	-0.13611	0.30792	-0.26962	-0.055237	0.093384	0.011597	0.024414	0.34409	-0.032196	0.059509	0.1268	-0.16083	-0.010071	-0.040588	-0.007019	0.010376	-0.042725	-0.002441	-0.006866
37.185	0.014496	0.14221	-0.002441	0.004272	0.017853	-0.19333	-0.22492	-0.009613	0.012512	0.9317	0.00351	-0.006104	-0.001831	-0.12589	-0.000916	0.23224	-0.031738	0.10178	0.10056	-0.031128	0.18021	-0.04776	0.062256	0.15411	-0.15427	-0.017853	-0.11749	-0.004272	-0.023041	-0.029297	-0.001068	-0.010986
37.186	0.010986	0.10773	0.013123	0.020294	-0.003662	-0.16449	-0.21316	0.001831	0.007172	1.2527	0.010529	-0.007782	0.019226	-0.079651	-0.11108	0.059204	-0.062408	0.1062	0.23514	-0.12497	-0.089569	-0.047302	-0.07019	0.14297	-0.033722	-0.008087	-0.19714	-0.006256	0.065765	-0.063934	-0.001984	-0.000458
37.187	0.007172	0.11643	-0.001221	0.023804	0.019226	-0.19714	-0.21973	0	-0.003357	0.56854	0.019531	0.006561	0.0383	-0.045929	-0.2211	0.39902	-0.080261	-0.056458	0.24674	-0.13504	-0.2092	-0.082397	-0.14877	0.24765	0.017853	-0.011139	-0.078735	-0.000153	-0.003204	-0.052338	-0.001221	-0.007629
37.188	0.00351	0.10468	0.007477	0.011597	0.003662	-0.15488	-0.24048	0.002747	0.000305	-0.033569	0.012817	0.009155	0.06424	-0.075684	-0.1033	0.097351	-0.044098	-0.14771	0.12955	-0.015411	-0.048065	-0.10529	-0.15961	0.22675	0.036926	-0.008698	0.02243	-0.002289	-0.062866	-0.091858	-0.006866	-0.016785
37.189	0.012054	0.1297	-0.010986	0.011292	-0.020447	-0.1004	-0.25101	-0.002136	0.006256	-0.38849	0.021362	-0.010834	0.01709	-0.093689	-0.065308	0.063477	-0.042572	-0.19379	0.080261	0.007324	0.066681	0.073853	-0.11856	0.2066	0.024109	-0.008392	0.045776	-0.00351	-0.069427	-0.085907	-0.004272	-0.014191
37.19	0.009766	0.11047	-0.007172	0.015106	0.001831	-0.029449	-0.2417	0.000305	0.010834	-0.46829	0.010223	-0.00946	0.003204	-0.19775	-0.050659	0.27527	-0.066223	-0.1683	0.028381	-0.018921	0.15213	0.13519	-0.060272	0.22858	0.036011	-0.00061	0.10513	-0.007782	-0.02243	-0.028534	-0.001373	-0.015869
37.191	0.011597	0.093994	0.008392	0.013123	0.040588	-0.03891	-0.27405	-0.00061	0.014954	-0.55176	-0.00351	-0.008698	0.003815	-0.32288	0.009308	-0.26749	-0.036469	-0.10727	0.15991	0.005798	0.22003	0.075989	0.088806	0.49362	-0.027618	0.001831	0.015564	-0.00473	0.029449	-0.045013	0.000763	-0.013733
37.192	0.013428	0.13382	0.003967	0.00061	0.061951	0.046082	-0.29999	-0.001678	0.006104	-0.081329	0.002136	-0.010529	-0.006866	-0.32135	0.005646	0.15305	-0.013733	0.012054	0.15533	0.020599	0.11856	0.010376	0.18249	0.78262	-0.040894	-0.000763	0.071869	-0.007477	0.036926	-0.051117	-0.000458	-0.016785
